<svg xmlns="http://www.w3.org/2000/svg" width="1758.7859280943617" height="1799.870252823805" style="background: rgba(0, 0, 0, 0);"><rect width="100%" height="100%" fill="rgba(0,0,0,0)"/><g transform="translate(879.3929443359375,899.9351196289062) scale(1) translate(51.85872193308285,-171.49703447955653)"><path d="M145.4712614349271,73.88514033072228 Q34.90677239844082,77.23007727968819,-11.638722240146187,48.284059841674384 Q-58.184216878733196,19.338042403660577,-58.184216878733196,19.338042403660577" stroke="#A5ABB6" stroke-width="1.25" fill="none"/><polygon points="-65.08384042465305,15.047259267147115 -57.84093720380972,24.70352551935337 -53.220093826025995,17.27316170067045" fill="#A5ABB6"/><text x="39.27514733826889" y="58.170834323439806" text-anchor="middle" dominant-baseline="alphabetic" font-size="7.5" font-family="&quot;Open Sans&quot;, sans-serif" fill="#bbbec3ff" transform="rotate(15.427129248869244,39.27514733826889,61.920834323439806)"><tspan>FOLLOWS</tspan></text><path d="M183.2909448155615,36.97026187004486 Q174.76297852632604,8.311328142013286,183.32562207716109,-1.795540267983733 Q191.8882656279961,-11.902408677980752,191.8882656279961,-11.902408677980752" stroke="#A5ABB6" stroke-width="1.25" fill="none"/><polygon points="197.1403621722445,-18.101691450196775 186.53015315670737,-12.34612113556986 193.20630383447846,-6.690017164840853" fill="#A5ABB6"/><text x="181.17629187405242" y="6.6726273690226705" text-anchor="middle" dominant-baseline="alphabetic" font-size="7.5" font-family="&quot;Open Sans&quot;, sans-serif" fill="#bbbec3ff" transform="rotate(-77.03635744484923,181.17629187405242,10.42262736902267)"><tspan>FOLLO...</tspan></text><polyline points="165.04630808951086,41.57341648292837 77.72063284723768,-134.31040804541288" stroke="#A5ABB6" stroke-width="1.25" fill="none"/><polygon points="74.10743469793489,-141.58779934545132 75.19172912771808,-129.565843157312 83.02891975852867,-133.45697962579194" fill="#A5ABB6"/><text x="121.38347046837427" y="-50.11849578124226" text-anchor="middle" dominant-baseline="alphabetic" font-size="7.5" font-family="&quot;Open Sans&quot;, sans-serif" fill="#bbbec3ff" transform="rotate(63.59576970475838,121.38347046837427,-46.36849578124226)"><tspan>POSTED</tspan></text><path d="M195.6261251940527,107.52205940212235 Q219.91290153319798,158.95104096638073,218.39851623948408,185.93216647172372 Q216.88413094577015,212.9132919770667,216.88413094577015,212.9132919770667" stroke="#A5ABB6" stroke-width="1.25" fill="none"/><polygon points="216.42881098870282,221.0255240211281 221.42737895298296,210.03837501392553 212.6911290593784,209.5480304447761" fill="#A5ABB6"/><text x="213.0840148015547" y="155.83435832798762" text-anchor="middle" dominant-baseline="alphabetic" font-size="7.5" font-family="&quot;Open Sans&quot;, sans-serif" fill="#bbbec3ff" transform="rotate(79.31638995618525,213.0840148015547,159.58435832798762)"><tspan>COMMENTS_O...</tspan></text><polyline points="163.06451746879503,42.707877643047006 120.16258841541742,-31.562312170081093" stroke="#A5ABB6" stroke-width="1.25" fill="none"/><polygon points="116.09852442081552,-38.59786537134256 117.93731515112353,-26.667988018656427 125.51406475248203,-31.0446723205354" fill="#A5ABB6"/><text x="141.61355294210622" y="1.8227827364829565" text-anchor="middle" dominant-baseline="alphabetic" font-size="7.5" font-family="&quot;Open Sans&quot;, sans-serif" fill="#bbbec3ff" transform="rotate(59.98726403804376,141.61355294210622,5.5727827364829565)"><tspan>MEMBER_OF</tspan></text><polyline points="208.7190912881326,98.18332897307795 286.4818163345547,173.9799250263974" stroke="#A5ABB6" stroke-width="1.25" fill="none"/><polygon points="292.3001424569018,179.65114236785183 287.2977310098197,168.6657427522665 281.19026618056114,174.93163242248647" fill="#A5ABB6"/><text x="247.60045381134364" y="132.3316269997377" text-anchor="middle" dominant-baseline="alphabetic" font-size="7.5" font-family="&quot;Open Sans&quot;, sans-serif" fill="#bbbec3ff" transform="rotate(44.26644154666587,247.60045381134364,136.0816269997377)"><tspan>ORGANIZED</tspan></text><path d="M145.8783643270519,69.36146374767642 Q38.840115763962054,56.098097354627114,-8.498532148266275,35.317396835337966 Q-55.8371800604946,14.536696316048824,-55.8371800604946,14.536696316048824" stroke="#A5ABB6" stroke-width="1.25" fill="none"/><polygon points="-63.27691046670741,11.270806470559144 -54.73430135952258,19.79881647535175 -51.217189218226004,11.786799114814881" fill="#A5ABB6"/><text x="41.93035394862035" y="45.27358869324487" text-anchor="middle" dominant-baseline="alphabetic" font-size="7.5" font-family="&quot;Open Sans&quot;, sans-serif" fill="#bbbec3ff" transform="rotate(15.427129248869244,41.93035394862035,49.02358869324487)"><tspan>FRIEND_OF</tspan></text><path d="M189.7653006023687,109.0333285451927 Q199.0866376404633,163.83674358011496,204.2525116017478,188.79029582480388 Q209.4183855630323,213.74384806949277,209.4183855630323,213.74384806949277" stroke="#A5ABB6" stroke-width="1.25" fill="none"/><polygon points="211.06549477015187,221.70014471176435 213.0690417522864,209.79682901863163 204.50072229137857,211.57063893399118" fill="#A5ABB6"/><text x="199.33924036158191" y="158.86266594372884" text-anchor="middle" dominant-baseline="alphabetic" font-size="7.5" font-family="&quot;Open Sans&quot;, sans-serif" fill="#bbbec3ff" transform="rotate(79.31638995618525,199.33924036158191,162.61266594372884)"><tspan>LIKES</tspan></text><polyline points="155.5399505751539,98.32806240559805 37.5470029279591,202.4186294132691" stroke="#A5ABB6" stroke-width="1.25" fill="none"/><polygon points="31.45403605300856,207.79369961381116 42.78472029553966,203.63212303803394 36.99618315649434,197.07046640347184" fill="#A5ABB6"/><text x="96.54347675155651" y="146.62334590943357" text-anchor="middle" dominant-baseline="alphabetic" font-size="7.5" font-family="&quot;Open Sans&quot;, sans-serif" fill="#bbbec3ff" transform="rotate(-41.4179705520807,96.54347675155651,150.37334590943357)"><tspan>LIKES</tspan></text><polyline points="217.23252901864288,64.75823054853656 394.3422191691923,25.406177841800858" stroke="#A5ABB6" stroke-width="1.25" fill="none"/><polygon points="402.27379267047667,23.643859257173574 390.34267320005273,21.813145412119738 392.2405547527283,30.354839951964507" fill="#A5ABB6"/><text x="305.7873740939176" y="41.33220419516871" text-anchor="middle" dominant-baseline="alphabetic" font-size="7.5" font-family="&quot;Open Sans&quot;, sans-serif" fill="#bbbec3ff" transform="rotate(-12.52706399498778,305.7873740939176,45.08220419516871)"><tspan>TAGGED_IN</tspan></text><path d="M181.7902687964904,110.12842764227968 Q178.26784916280133,168.76166892197577,189.3099647477923,192.40064286915174 Q200.35208033278326,216.03961681632768,200.35208033278326,216.03961681632768" stroke="#A5ABB6" stroke-width="1.25" fill="none"/><polygon points="203.79073372946718,223.40109002605098 202.99339152390968,211.35669836821967 195.06565114420766,215.05986356464848" fill="#A5ABB6"/><text x="184.6695118637191" y="162.1728455756397" text-anchor="middle" dominant-baseline="alphabetic" font-size="7.5" font-family="&quot;Open Sans&quot;, sans-serif" fill="#bbbec3ff" transform="rotate(79.31638995618525,184.6695118637191,165.9228455756397)"><tspan>VIEWED</tspan></text><path d="M150.06061087399897,56.05099497800992 Q71.76069425298907,9.114842490455466,43.49415446438944,-23.142490580105356 Q15.227614675789809,-55.39982365066618,15.227614675789809,-55.39982365066618" stroke="#A5ABB6" stroke-width="1.25" fill="none"/><polygon points="9.872827078347193,-61.51062349899002 13.9967176795549,-50.16616884884175 20.57757905467289,-55.93286318454918" fill="#A5ABB6"/><text x="77.20240351394173" y="0.9702140770636678" text-anchor="middle" dominant-baseline="alphabetic" font-size="7.5" font-family="&quot;Open Sans&quot;, sans-serif" fill="#bbbec3ff" transform="rotate(39.86201157698876,77.20240351394173,4.720214077063668)"><tspan>RECOMMENDED</tspan></text><path d="M146.8525005171779,64.91808982420795 Q44.40221170678348,35.609004663838014,-4.852927117739608,22.50834738102199 Q-54.1080659422627,9.407690098205967,-54.1080659422627,9.407690098205967" stroke="#A5ABB6" stroke-width="1.25" fill="none"/><polygon points="-61.96007443798983,7.319248673834914 -52.21260805702899,14.43894137450944 -49.9635172923217,5.98293222526484" fill="#A5ABB6"/><text x="45.38721449712054" y="32.63594731252249" text-anchor="middle" dominant-baseline="alphabetic" font-size="7.5" font-family="&quot;Open Sans&quot;, sans-serif" fill="#bbbec3ff" transform="rotate(15.427129248869244,45.38721449712054,36.38594731252249)"><tspan>SIMILAR_TO</tspan></text><polyline points="184.93813540171908,37.44748852097761 204.77465176853337,-147.2972580701341" stroke="#A5ABB6" stroke-width="1.25" fill="none"/><polygon points="205.64206798374914,-155.37582317227822 200.09103355383434,-144.65718791596407 208.79102674075875,-143.72304737650097" fill="#A5ABB6"/><text x="194.85639358512623" y="-58.674884774578246" text-anchor="middle" dominant-baseline="alphabetic" font-size="7.5" font-family="&quot;Open Sans&quot;, sans-serif" fill="#bbbec3ff" transform="rotate(-83.87148512104717,194.85639358512623,-54.924884774578246)"><tspan>SIMILAR_TO</tspan></text><path d="M153.59632107272165,51.13056109799985 Q85.68940667227353,-6.874752592613407,52.889889837817826,-33.651659314436216 Q20.09037300336212,-60.42856603625903,20.09037300336212,-60.42856603625903" stroke="#A5ABB6" stroke-width="1.25" fill="none"/><polygon points="13.796419109926669,-65.56683124810911 19.7443663098411,-55.063258089082225 25.277882691833494,-61.84136228201271" fill="#A5ABB6"/><text x="86.26637685515772" y="-9.511877530871498" text-anchor="middle" dominant-baseline="alphabetic" font-size="7.5" font-family="&quot;Open Sans&quot;, sans-serif" fill="#bbbec3ff" transform="rotate(39.86201157698876,86.26637685515772,-5.761877530871498)"><tspan>SIMILAR_TO</tspan></text><path d="M189.2199578598301,38.046661423858986 Q196.1358308158072,12.461425634268064,198.20055847458497,1.719163899323945 Q200.26528613336274,-9.023097835620174,200.26528613336274,-9.023097835620174" stroke="#A5ABB6" stroke-width="1.25" fill="none"/><polygon points="201.79888909640442,-17.00205058342798 195.37907966798863,-6.7800560665626985 203.97179801178166,-5.128483644825492" fill="#A5ABB6"/><text x="195.4392264062018" y="9.736603714193734" text-anchor="middle" dominant-baseline="alphabetic" font-size="7.5" font-family="&quot;Open Sans&quot;, sans-serif" fill="#bbbec3ff" transform="rotate(-77.03635744484923,195.4392264062018,13.486603714193734)"><tspan>SIMILA...</tspan></text><polyline points="218.22914463753474,76.24844802754856 309.56531850394134,85.48256651535054" stroke="#A5ABB6" stroke-width="1.25" fill="none"/><polygon points="317.6491101902815,86.29984062595163 306.8962385302881,80.81541941093624 306.01609718041004,89.52104122699481" fill="#A5ABB6"/><text x="263.89723157073803" y="77.11550727144956" text-anchor="middle" dominant-baseline="alphabetic" font-size="7.5" font-family="&quot;Open Sans&quot;, sans-serif" fill="#bbbec3ff" transform="rotate(5.773007103600344,263.89723157073803,80.86550727144956)"><tspan>LOCATED_IN</tspan></text><polyline points="211.759662659227,52.78516494459245 296.62581856864404,-3.2645400983717416" stroke="#A5ABB6" stroke-width="1.25" fill="none"/><polygon points="303.40562246818735,-7.742249790137977 291.60712723479173,-5.193007701292666 296.4292761336169,2.108319575138595" fill="#A5ABB6"/><text x="254.1927406139355" y="21.010312423110356" text-anchor="middle" dominant-baseline="alphabetic" font-size="7.5" font-family="&quot;Open Sans&quot;, sans-serif" fill="#bbbec3ff" transform="rotate(-33.44269787825754,254.1927406139355,24.760312423110356)"><tspan>USES_DEVICE</tspan></text><path d="M-58.03829215393725,1.5904099119227237 Q48.22376395577338,14.638855272065832,95.94932655739686,35.5297356661318 Q143.67488915902032,56.42061606019776,143.67488915902032,56.42061606019776" stroke="#A5ABB6" stroke-width="1.25" fill="none"/><polygon points="151.11804045110233,59.67870197729354 142.56649261742498,51.159655396347524 139.05778470670643,59.175356787820455" fill="#A5ABB6"/><text x="45.52103122915746" y="18.07218412906304" text-anchor="middle" dominant-baseline="alphabetic" font-size="7.5" font-family="&quot;Open Sans&quot;, sans-serif" fill="#bbbec3ff" transform="rotate(15.427129248869244,45.52103122915746,21.82218412906304)"><tspan>FOLLOWS</tspan></text><polyline points="-81.11555854400231,-36.45757514556253 21.849989797023213,-281.7924403879355" stroke="#A5ABB6" stroke-width="1.25" fill="none"/><polygon points="24.994304273309105,-289.2843634704437 16.60652564633192,-280.6040239203555 24.674750504417663,-277.21783909973993" fill="#A5ABB6"/><text x="-29.63278437348955" y="-162.87500776674904" text-anchor="middle" dominant-baseline="alphabetic" font-size="7.5" font-family="&quot;Open Sans&quot;, sans-serif" fill="#bbbec3ff" transform="rotate(-67.23250390999894,-29.63278437348955,-159.12500776674904)"><tspan>POSTED</tspan></text><polyline points="-110.6837099120146,-34.95720036192938 -150.87929889497383,-119.5445889590647" stroke="#A5ABB6" stroke-width="1.25" fill="none"/><polygon points="-154.36655906075012,-126.88316113191888 -153.489583847366,-114.84430572639506 -145.58650612275378,-118.59981667415416" fill="#A5ABB6"/><text x="-130.7815044034942" y="-81.00089466049704" text-anchor="middle" dominant-baseline="alphabetic" font-size="7.5" font-family="&quot;Open Sans&quot;, sans-serif" fill="#bbbec3ff" transform="rotate(64.58311978734815,-130.7815044034942,-77.25089466049704)"><tspan>COMMENTS_ON</tspan></text><path d="M-57.63155207440391,-2.93341868002366 Q53.86616342170371,-6.020705329577417,99.94862342437506,22.79083265849571 Q146.0310834270464,51.602370646568836,146.0310834270464,51.602370646568836" stroke="#A5ABB6" stroke-width="1.25" fill="none"/><polygon points="152.92039762173832,55.909687088022494 145.7006714360246,46.23607975656027 141.06202296061298,53.65534119699768" fill="#A5ABB6"/><text x="49.032964549012476" y="5.406885326847586" text-anchor="middle" dominant-baseline="alphabetic" font-size="7.5" font-family="&quot;Open Sans&quot;, sans-serif" fill="#bbbec3ff" transform="rotate(15.427129248869244,49.032964549012476,9.156885326847586)"><tspan>FRIEND_OF</tspan></text><polyline points="-70.57577599744761,-30.139091444529846 31.084422775900652,-141.95116674594675" stroke="#A5ABB6" stroke-width="1.25" fill="none"/><polygon points="36.550267710316135,-147.96283574489576 25.74512218630677,-142.58213363411315 32.219227262098016,-136.69583908935803" fill="#A5ABB6"/><text x="-19.74567661077348" y="-89.7951290952383" text-anchor="middle" dominant-baseline="alphabetic" font-size="7.5" font-family="&quot;Open Sans&quot;, sans-serif" fill="#bbbec3ff" transform="rotate(-47.722703864320415,-19.74567661077348,-86.0451290952383)"><tspan>TAGGED_IN</tspan></text><polyline points="-129.69467553449329,4.8880900878108875 -330.4102839326539,41.76010023563615" stroke="#A5ABB6" stroke-width="1.25" fill="none"/><polygon points="-338.4015630734978,43.22812022634256 -326.54624272964134,45.498473622741926 -328.1271873350174,36.892480701833136" fill="#A5ABB6"/><text x="-230.0524797335736" y="19.57409516172352" text-anchor="middle" dominant-baseline="alphabetic" font-size="7.5" font-family="&quot;Open Sans&quot;, sans-serif" fill="#bbbec3ff" transform="rotate(-10.409334462573,-230.0524797335736,23.32409516172352)"><tspan>MUTED</tspan></text><polyline points="-129.84790965477208,-9.416630613245108 -284.3526478359931,-43.22335445105166" stroke="#A5ABB6" stroke-width="1.25" fill="none"/><polygon points="-292.28986595790616,-44.960073623852814 -282.23502811291945,-38.28149885740574 -280.3647151575952,-46.829272219465935" fill="#A5ABB6"/><text x="-207.10027874538258" y="-30.069992532148383" text-anchor="middle" dominant-baseline="alphabetic" font-size="7.5" font-family="&quot;Open Sans&quot;, sans-serif" fill="#bbbec3ff" transform="rotate(12.342205939233686,-207.10027874538258,-26.319992532148383)"><tspan>VIEWED</tspan></text><polyline points="-60.20091700167459,-15.200215119865577 60.0926583587695,-55.86100892901901" stroke="#A5ABB6" stroke-width="1.25" fill="none"/><polygon points="67.78983588647304,-58.46275509400429 55.73126522081453,-59.00497138048042 58.533145706183284,-50.71570327372276" fill="#A5ABB6"/><text x="-0.05412932145254601" y="-39.28061202444229" text-anchor="middle" dominant-baseline="alphabetic" font-size="7.5" font-family="&quot;Open Sans&quot;, sans-serif" fill="#bbbec3ff" transform="rotate(-18.675922382908613,-0.05412932145254601,-35.53061202444229)"><tspan>RECOMMENDED</tspan></text><polyline points="-78.9909194952941,30.265071359602477 -10.131149299164509,190.50320380008574" stroke="#A5ABB6" stroke-width="1.25" fill="none"/><polygon points="-6.923224848477878,197.9681114163049 -7.345400756079815,185.9047415511702 -15.38453203508507,189.3594294211404" fill="#A5ABB6"/><text x="-44.5610343972293" y="106.63413757984411" text-anchor="middle" dominant-baseline="alphabetic" font-size="7.5" font-family="&quot;Open Sans&quot;, sans-serif" fill="#bbbec3ff" transform="rotate(66.74515987725349,-44.5610343972293,110.38413757984411)"><tspan>RECOMMENDED</tspan></text><path d="M-59.485185557363614,-13.612586104853637 Q55.9055005631655,-36.55007419956083,112.16095124904486,-42.78372464876638 Q168.4164019349242,-49.01737509797193,168.4164019349242,-49.01737509797193" stroke="#A5ABB6" stroke-width="1.25" fill="none"/><polygon points="176.491974061788,-49.912226942592426 164.8285693544117,-53.021586302967634 165.7922559563107,-44.324816320191246" fill="#A5ABB6"/><text x="55.1855543759729" y="-37.682527400486805" text-anchor="middle" dominant-baseline="alphabetic" font-size="7.5" font-family="&quot;Open Sans&quot;, sans-serif" fill="#bbbec3ff" transform="rotate(-8.770700902671821,55.1855543759729,-33.932527400486805)"><tspan>SIMILAR_TO</tspan></text><polyline points="-88.88489322778578,-38.5139834756695 -69.78991553519221,-146.33019264613566" stroke="#A5ABB6" stroke-width="1.25" fill="none"/><polygon points="-68.37297412170825,-154.33068650781408 -74.64285123512826,-144.01604807582763 -66.02693476870533,-142.49011116899877" fill="#A5ABB6"/><text x="-79.337404381489" y="-96.17208806090258" text-anchor="middle" dominant-baseline="alphabetic" font-size="7.5" font-family="&quot;Open Sans&quot;, sans-serif" fill="#bbbec3ff" transform="rotate(-79.95667585356335,-79.337404381489,-92.42208806090258)"><tspan>LOCATED_IN</tspan></text><polyline points="-109.5953772390022,30.19879971806029 -156.4582767520044,123.52407953928414" stroke="#A5ABB6" stroke-width="1.25" fill="none"/><polygon points="-160.10434649379073,130.78505746502046 -151.14618489130547,122.69466404419359 -158.96569958055997,118.7681273991929" fill="#A5ABB6"/><text x="-133.0268269955033" y="73.11143962867222" text-anchor="middle" dominant-baseline="alphabetic" font-size="7.5" font-family="&quot;Open Sans&quot;, sans-serif" fill="#bbbec3ff" transform="rotate(-63.336675954079574,-133.0268269955033,76.86143962867222)"><tspan>USES_DEVICE</tspan></text><polyline points="186.51935850425377,-161.3959241786096 129.07445484334306,-98.55522558256936" stroke="#A5ABB6" stroke-width="1.25" fill="none"/><polygon points="123.59244629056015,-92.5582924307646 134.41203752230828,-97.90988757407268 127.9538018203647,-103.8135890924543" fill="#A5ABB6"/><text x="157.79690667379842" y="-133.72557488058948" text-anchor="middle" dominant-baseline="alphabetic" font-size="7.5" font-family="&quot;Open Sans&quot;, sans-serif" fill="#bbbec3ff" transform="rotate(-47.568463338536525,157.79690667379842,-129.97557488058948)"><tspan>MEMBER_OF</tspan></text><polyline points="174.31737473557317,-183.85971041626348 101.72683052107921,-175.85660164391217" stroke="#A5ABB6" stroke-width="1.25" fill="none"/><polygon points="93.65076482752293,-174.96621525960288 105.31244845630584,-171.8504071875008 104.3535708116651,-180.54770870363834" fill="#A5ABB6"/><text x="138.0221026283262" y="-183.60815603008783" text-anchor="middle" dominant-baseline="alphabetic" font-size="7.5" font-family="&quot;Open Sans&quot;, sans-serif" fill="#bbbec3ff" transform="rotate(-6.291451794497842,138.0221026283262,-179.85815603008783)"><tspan>LIKES</tspan></text><path d="M178.26879020090902,-206.3363485808349 Q118.41494520880273,-245.8095745089683,93.41861243519008,-267.8977161523644 Q68.42227966157745,-289.98585779576047,68.42227966157745,-289.98585779576047" stroke="#A5ABB6" stroke-width="1.25" fill="none"/><polygon points="62.33378253289059,-295.36599048129636 67.86701480347614,-284.6381544627999 73.66100384943789,-291.1949975244627" fill="#A5ABB6"/><text x="120.88024007002298" y="-250.73533884863298" text-anchor="middle" dominant-baseline="alphabetic" font-size="7.5" font-family="&quot;Open Sans&quot;, sans-serif" fill="#bbbec3ff" transform="rotate(37.45311251241764,120.88024007002298,-246.98533884863298)"><tspan>LIKES</tspan></text><path d="M185.00896899831932,-215.1337636282348 Q130.52486142399843,-263.24725200739493,103.08455833760519,-281.3300795565543 Q75.64425525121196,-299.41290710571377,75.64425525121196,-299.41290710571377" stroke="#A5ABB6" stroke-width="1.25" fill="none"/><polygon points="68.85989872451819,-303.883715927248 75.84626454988349,-294.0402501984425 80.66098174230488,-301.34648030411273" fill="#A5ABB6"/><text x="130.42573677438202" y="-264.01029368718457" text-anchor="middle" dominant-baseline="alphabetic" font-size="7.5" font-family="&quot;Open Sans&quot;, sans-serif" fill="#bbbec3ff" transform="rotate(37.45311251241764,130.42573677438202,-260.26029368718457)"><tspan>SHARES</tspan></text><path d="M-32.66266482598245,-58.1833047244135 Q-44.431551147584564,-38.43765912879088,-52.41609743182728,-33.14517992572067 Q-60.40064371607001,-27.85270072265046,-60.40064371607001,-27.85270072265046" stroke="#A5ABB6" stroke-width="1.25" fill="none"/><polygon points="-67.17298856092485,-23.363717507893696 -55.37875089087218,-25.932585504173527 -60.21304050676409,-33.22587995247875" fill="#A5ABB6"/><text x="-45.48160270930539" y="-44.47783092616143" text-anchor="middle" dominant-baseline="alphabetic" font-size="7.5" font-family="&quot;Open Sans&quot;, sans-serif" fill="#bbbec3ff" transform="rotate(-45.87640077848197,-45.48160270930539,-40.72783092616143)"><tspan>FOLL...</tspan></text><polyline points="-35.244541000226704,-115.35426826333324 -134.59061275401794,-236.19534816600714" stroke="#A5ABB6" stroke-width="1.25" fill="none"/><polygon points="-139.75046762215757,-242.47161479034165 -135.98558137168283,-231.00301607380325 -129.22652500701486,-236.55978285487672" fill="#A5ABB6"/><text x="-84.91757687712231" y="-179.5248082146702" text-anchor="middle" dominant-baseline="alphabetic" font-size="7.5" font-family="&quot;Open Sans&quot;, sans-serif" fill="#bbbec3ff" transform="rotate(50.575634974125244,-84.91757687712231,-175.7748082146702)"><tspan>POSTED</tspan></text><path d="M-40.58815128703225,-65.88128809925819 Q-60.60509097770618,-52.85072756794852,-65.3496066593643,-45.05055586820757 Q-70.0941223410224,-37.250384168466624,-70.0941223410224,-37.250384168466624" stroke="#A5ABB6" stroke-width="1.25" fill="none"/><polygon points="-74.31647358519939,-30.308671485648567 -64.73229580251385,-37.646699914993654 -72.20798638401021,-42.19384740872271" fill="#A5ABB6"/><text x="-57.97311389586675" y="-55.958281850905465" text-anchor="middle" dominant-baseline="alphabetic" font-size="7.5" font-family="&quot;Open Sans&quot;, sans-serif" fill="#bbbec3ff" transform="rotate(-45.87640077848197,-57.97311389586675,-52.208281850905465)"><tspan>FRIEN...</tspan></text><polyline points="-4.72966001791739,-123.62294832874075 29.10685618931854,-279.3103176850944" stroke="#A5ABB6" stroke-width="1.25" fill="none"/><polygon points="30.83243000981706,-287.2499662912992 24.167978547324203,-277.1857618168225 32.71836935400632,-275.32745154859333" fill="#A5ABB6"/><text x="12.188598085700574" y="-205.21663300691756" text-anchor="middle" dominant-baseline="alphabetic" font-size="7.5" font-family="&quot;Open Sans&quot;, sans-serif" fill="#bbbec3ff" transform="rotate(-77.73823581973146,12.188598085700574,-201.46663300691756)"><tspan>LIKES</tspan></text><path d="M20.55006704172661,-70.4419625913143 Q97.42826196227018,-24.695661980656777,126.39918603974974,8.162321237247939 Q155.3701101172293,41.020304455152655,155.3701101172293,41.020304455152655" stroke="#A5ABB6" stroke-width="1.25" fill="none"/><polygon points="160.7435523765719,47.11470707440181 156.58500296630856,35.78291146194926 150.02180014557874,41.56969543354901" fill="#A5ABB6"/><text x="92.69417527087407" y="-23.453245524368796" text-anchor="middle" dominant-baseline="alphabetic" font-size="7.5" font-family="&quot;Open Sans&quot;, sans-serif" fill="#bbbec3ff" transform="rotate(39.86201157698876,92.69417527087407,-19.703245524368796)"><tspan>RECOMMENDED</tspan></text><polyline points="21.131620437490916,-103.90679354640768 171.70837538275651,-172.3984406399516" stroke="#A5ABB6" stroke-width="1.25" fill="none"/><polygon points="179.10422076945474,-175.76252982070383 167.05238682900594,-175.08693847096131 170.6752521005853,-167.12218190067088" fill="#A5ABB6"/><text x="96.41999791012371" y="-141.90261709317963" text-anchor="middle" dominant-baseline="alphabetic" font-size="7.5" font-family="&quot;Open Sans&quot;, sans-serif" fill="#bbbec3ff" transform="rotate(-24.45898510831023,96.41999791012371,-138.15261709317963)"><tspan>SIMILAR_TO</tspan></text><polyline points="24.43977273750395,-82.80085221144375 169.34028703665777,-57.7639396458687" stroke="#A5ABB6" stroke-width="1.25" fill="none"/><polygon points="177.34664976284873,-56.38054494562579 167.0058215959459,-62.60713292160342 165.51601191876122,-53.98489613955162" fill="#A5ABB6"/><text x="96.89002988708086" y="-74.03239592865623" text-anchor="middle" dominant-baseline="alphabetic" font-size="7.5" font-family="&quot;Open Sans&quot;, sans-serif" fill="#bbbec3ff" transform="rotate(9.803166778797966,96.89002988708086,-70.28239592865623)"><tspan>SIMILAR_TO</tspan></text><polyline points="-40.62619321567977,-66.4496143820804 -186.3562182635481,35.04578265629999" stroke="#A5ABB6" stroke-width="1.25" fill="none"/><polygon points="-193.023541458758,39.68931863770639 -181.29149766001774,36.849904383949024 -186.29222871691695,29.669710173722965" fill="#A5ABB6"/><text x="-113.49120573961393" y="-19.451915862890203" text-anchor="middle" dominant-baseline="alphabetic" font-size="7.5" font-family="&quot;Open Sans&quot;, sans-serif" fill="#bbbec3ff" transform="rotate(-34.85573798532466,-113.49120573961393,-15.701915862890203)"><tspan>LOCATED_IN</tspan></text><polyline points="-404.04888223431345,31.802424477338185 -499.41308355571755,-20.44300902240183" stroke="#A5ABB6" stroke-width="1.25" fill="none"/><polygon points="-506.5387924095086,-24.34684025991767 -498.7744892783065,-15.10461531746981 -494.5703633302125,-22.778455621552432" fill="#A5ABB6"/><text x="-451.7309828950155" y="1.9297077274681769" text-anchor="middle" dominant-baseline="alphabetic" font-size="7.5" font-family="&quot;Open Sans&quot;, sans-serif" fill="#bbbec3ff" transform="rotate(28.716203360983382,-451.7309828950155,5.679707727468177)"><tspan>BLOCKED</tspan></text><polyline points="-335.53855722145585,49.703842348704214 -263.0112287908058,54.434079173719745" stroke="#A5ABB6" stroke-width="1.25" fill="none"/><polygon points="-254.90345433582755,54.962868722786475 -265.8448707470692,49.86497387139809 -266.4143364152949,58.59642328445159" fill="#A5ABB6"/><text x="-299.2748930061308" y="48.31896076121198" text-anchor="middle" dominant-baseline="alphabetic" font-size="7.5" font-family="&quot;Open Sans&quot;, sans-serif" fill="#bbbec3ff" transform="rotate(3.7315493455260658,-299.2748930061308,52.06896076121198)"><tspan>LOCATED_IN</tspan></text><polyline points="-372.1499235689323,84.60437809969525 -375.250790925279,166.44947579388392" stroke="#A5ABB6" stroke-width="1.25" fill="none"/><polygon points="-375.5584023150853,174.56865064314422 -370.7606154719056,163.49235313867948 -379.5043422326475,163.16107933427267" fill="#A5ABB6"/><text x="-373.70035724710567" y="121.77692694678959" text-anchor="middle" dominant-baseline="alphabetic" font-size="7.5" font-family="&quot;Open Sans&quot;, sans-serif" fill="#bbbec3ff" transform="rotate(-87.83027106869942,-373.70035724710567,125.52692694678959)"><tspan>USES_DEVICE</tspan></text><polyline points="-499.5188528997027,-44.45083230429394 -366.91202947907664,-51.82457251261487" stroke="#A5ABB6" stroke-width="1.25" fill="none"/><polygon points="-358.7995618021122,-52.27567470747396 -370.27511053667945,-56.019323494496085 -369.789308172985,-47.2828198423805" fill="#A5ABB6"/><text x="-433.2154411893897" y="-51.8877024084544" text-anchor="middle" dominant-baseline="alphabetic" font-size="7.5" font-family="&quot;Open Sans&quot;, sans-serif" fill="#bbbec3ff" transform="rotate(-3.1827137059640744,-433.2154411893897,-48.1377024084544)"><tspan>VIEWED</tspan></text><path d="M209.20861687821252,-13.029295302686783 Q217.54483403815996,16.44881922601107,209.1025859816492,26.168732215539578 Q200.66033792513846,35.88864520506808,200.66033792513846,35.88864520506808" stroke="#A5ABB6" stroke-width="1.25" fill="none"/><polygon points="195.33242659531692,42.022892172835135 206.0125906500213,36.398194779676956 199.40647853088757,30.66044411679223" fill="#A5ABB6"/><text x="211.23965571991772" y="10.18924708860086" text-anchor="middle" dominant-baseline="alphabetic" font-size="7.5" font-family="&quot;Open Sans&quot;, sans-serif" fill="#bbbec3ff" transform="rotate(-77.03635744484923,211.23965571991772,13.93924708860086)"><tspan>FOLLO...</tspan></text><path d="M175.69714022208106,-38.681268638482 Q60.12816600358756,-15.716150309760936,3.9618752447485868,-9.496141919378823 Q-52.204415514090385,-3.276133528996711,-52.204415514090385,-3.276133528996711" stroke="#A5ABB6" stroke-width="1.25" fill="none"/><polygon points="-60.28004683786176,-2.381816067173123 -48.61684791011947,0.7283150831018803 -49.579959022852556,-7.9685186501903695" fill="#A5ABB6"/><text x="60.93726417879145" y="-22.097425696750147" text-anchor="middle" dominant-baseline="alphabetic" font-size="7.5" font-family="&quot;Open Sans&quot;, sans-serif" fill="#bbbec3ff" transform="rotate(-8.770700902671821,60.93726417879145,-18.347425696750147)"><tspan>FOLLOWS</tspan></text><polyline points="245.46337659253336,-40.269175445688255 395.58640785440065,4.3989689785771695" stroke="#A5ABB6" stroke-width="1.25" fill="none"/><polygon points="403.37399165044644,6.716114554401972 393.8388770890579,-0.6855552099955085 391.3434895458619,7.701073493438461" fill="#A5ABB6"/><text x="320.524892223467" y="-21.685103233555544" text-anchor="middle" dominant-baseline="alphabetic" font-size="7.5" font-family="&quot;Open Sans&quot;, sans-serif" fill="#bbbec3ff" transform="rotate(16.57003563107256,320.524892223467,-17.935103233555544)"><tspan>POSTED</tspan></text><polyline points="236.804815158119,-24.75655599197101 322.18604025876164,60.408974960599565" stroke="#A5ABB6" stroke-width="1.25" fill="none"/><polygon points="327.9385443870796,66.14694683694091 323.0632158351308,55.10456047752781 316.8838615067632,61.29956492340874" fill="#A5ABB6"/><text x="279.49542770844033" y="14.076209484314276" text-anchor="middle" dominant-baseline="alphabetic" font-size="7.5" font-family="&quot;Open Sans&quot;, sans-serif" fill="#bbbec3ff" transform="rotate(44.92753683478331,279.49542770844033,17.826209484314276)"><tspan>LOCATED_IN</tspan></text><polyline points="-670.4498625442324,-68.01311472363957 -576.6132464617583,-50.22246597971443" stroke="#A5ABB6" stroke-width="1.25" fill="none"/><polygon points="-568.6304507879745,-48.70899373661916 -578.8686058977006,-55.10299912832692 -580.4984990825725,-46.506142248867526" fill="#A5ABB6"/><text x="-623.5315545029953" y="-62.867790351677" text-anchor="middle" dominant-baseline="alphabetic" font-size="7.5" font-family="&quot;Open Sans&quot;, sans-serif" fill="#bbbec3ff" transform="rotate(10.735389678092927,-623.5315545029953,-59.117790351677)"><tspan>VIEWED</tspan></text><polyline points="-55.636794815562894,396.85214862011776 -9.592861654861247,268.45075895759044" stroke="#A5ABB6" stroke-width="1.25" fill="none"/><polygon points="-6.850289483886839,260.80262697082424 -14.765922021187066,269.9155785527451 -6.5294721892849745,272.8691178137945" fill="#A5ABB6"/><text x="-32.61482823521207" y="328.9014537888541" text-anchor="middle" dominant-baseline="alphabetic" font-size="7.5" font-family="&quot;Open Sans&quot;, sans-serif" fill="#bbbec3ff" transform="rotate(-70.27248471480216,-32.61482823521207,332.6514537888541)"><tspan>POSTED</tspan></text><polyline points="-72.14484263185167,467.19923683556743 -90.66990942652652,573.9410913843514" stroke="#A5ABB6" stroke-width="1.25" fill="none"/><polygon points="-92.05923672811849,581.9464267707702 -85.82498756399633,571.6102155519704 -94.4461179801398,570.1140169194869" fill="#A5ABB6"/><text x="-81.4073760291891" y="516.8201641099594" text-anchor="middle" dominant-baseline="alphabetic" font-size="7.5" font-family="&quot;Open Sans&quot;, sans-serif" fill="#bbbec3ff" transform="rotate(-80.15437513825675,-81.4073760291891,520.5701641099594)"><tspan>POSTED</tspan></text><polyline points="-249.38742622531387,831.0476144313052 -168.72328994090682,795.9363654637256" stroke="#A5ABB6" stroke-width="1.25" fill="none"/><polygon points="-161.27344334692293,792.693618059732 -173.33471030997404,793.1721201454241 -169.842520797981,801.195031862022" fill="#A5ABB6"/><text x="-209.05535808311035" y="809.7419899475153" text-anchor="middle" dominant-baseline="alphabetic" font-size="7.5" font-family="&quot;Open Sans&quot;, sans-serif" fill="#bbbec3ff" transform="rotate(-23.52238789471458,-209.05535808311035,813.4919899475153)"><tspan>LOCATED_IN</tspan></text><polyline points="-131.8350081014974,-161.08957482298777 18.140182061921855,-170.60747292129054" stroke="#A5ABB6" stroke-width="1.25" fill="none"/><polygon points="26.248869311774,-171.12207576240715 14.74436235906978,-174.77576496308913 15.29855003411844,-166.04333254017146" fill="#A5ABB6"/><text x="-56.84741301978778" y="-169.59852387213914" text-anchor="middle" dominant-baseline="alphabetic" font-size="7.5" font-family="&quot;Open Sans&quot;, sans-serif" fill="#bbbec3ff" transform="rotate(-3.631300808186957,-56.84741301978778,-165.84852387213914)"><tspan>BELONGS_TO</tspan></text><polyline points="53.89953375795117,-208.00959542813547 43.884363028831196,-278.4191428055765" stroke="#A5ABB6" stroke-width="1.25" fill="none"/><polygon points="42.74016668156852,-286.46317411574125 39.99303707230506,-274.70917888391017 48.655840021713246,-275.94139033480843" fill="#A5ABB6"/><text x="48.89194839339118" y="-246.96436911685598" text-anchor="middle" dominant-baseline="alphabetic" font-size="7.5" font-family="&quot;Open Sans&quot;, sans-serif" fill="#bbbec3ff" transform="rotate(81.90446003382549,48.89194839339118,-243.21436911685598)"><tspan>SIMILAR_TO</tspan></text><polyline points="54.9985530398291,-136.34365274656056 36.361914780495816,-24.96027759368517" stroke="#A5ABB6" stroke-width="1.25" fill="none"/><polygon points="35.02108119247676,-16.94667726117295 41.19263557031742,-27.32044425110268 32.56260444299657,-28.76441888435398" fill="#A5ABB6"/><text x="45.68023391016246" y="-84.40196517012286" text-anchor="middle" dominant-baseline="alphabetic" font-size="7.5" font-family="&quot;Open Sans&quot;, sans-serif" fill="#bbbec3ff" transform="rotate(-80.50127416847135,45.68023391016246,-80.65196517012286)"><tspan>TAGGED_WITH</tspan></text><polyline points="42.850853354421815,-356.07399423975977 57.20519767392576,-462.0760218368629" stroke="#A5ABB6" stroke-width="1.25" fill="none"/><polygon points="58.29549941104233,-470.1275351804549 52.45042059002367,-459.5663714862364 61.12128111389201,-458.3922003847262" fill="#A5ABB6"/><text x="50.02802551417379" y="-412.82500803831135" text-anchor="middle" dominant-baseline="alphabetic" font-size="7.5" font-family="&quot;Open Sans&quot;, sans-serif" fill="#bbbec3ff" transform="rotate(-82.28815902952172,50.02802551417379,-409.07500803831135)"><tspan>LOCATED_IN</tspan></text><polyline points="21.35632098045979,-351.7124704420987 -27.89196814212876,-446.3491432777795" stroke="#A5ABB6" stroke-width="1.25" fill="none"/><polygon points="-31.64269021119973,-453.5566191855147 -30.33033129665121,-441.55741758376615 -22.568434165244028,-445.5966567350734" fill="#A5ABB6"/><text x="-3.2678235808344844" y="-402.7808068599391" text-anchor="middle" dominant-baseline="alphabetic" font-size="7.5" font-family="&quot;Open Sans&quot;, sans-serif" fill="#bbbec3ff" transform="rotate(62.5078338161813,-3.2678235808344844,-399.0308068599391)"><tspan>HAS_TOPIC</tspan></text><polyline points="62.930721015030166,-347.24449598940527 135.49442229841674,-425.2763104327542" stroke="#A5ABB6" stroke-width="1.25" fill="none"/><polygon points="141.02740934412466,-431.2262414703401 130.16254133752128,-425.96717613521776 136.5701593779984,-420.0085747013784" fill="#A5ABB6"/><text x="99.21257165672345" y="-390.01040321107973" text-anchor="middle" dominant-baseline="alphabetic" font-size="7.5" font-family="&quot;Open Sans&quot;, sans-serif" fill="#bbbec3ff" transform="rotate(-47.07949238906471,99.21257165672345,-386.26040321107973)"><tspan>HAS_MEDIA</tspan></text><polyline points="-186.35124143849578,-294.5185748485755 -263.740097159519,-374.40903503379394" stroke="#A5ABB6" stroke-width="1.25" fill="none"/><polygon points="-269.39324382817705,-380.24492037730784 -264.7082097796195,-369.1204616954727 -258.4234101789122,-375.20846580018144" fill="#A5ABB6"/><text x="-225.0456692990074" y="-338.2138049411847" text-anchor="middle" dominant-baseline="alphabetic" font-size="7.5" font-family="&quot;Open Sans&quot;, sans-serif" fill="#bbbec3ff" transform="rotate(45.91124056549661,-225.0456692990074,-334.4638049411847)"><tspan>TAGGED_WITH</tspan></text><polyline points="469.18753934506134,30.565363536304375 564.3902134676352,71.05045804513657" stroke="#A5ABB6" stroke-width="1.25" fill="none"/><polygon points="571.8672246705861,74.23006941619242 563.2265383586073,65.8014476392954 559.8023414974703,73.85361355016552" fill="#A5ABB6"/><text x="516.7888764063483" y="47.05791079072047" text-anchor="middle" dominant-baseline="alphabetic" font-size="7.5" font-family="&quot;Open Sans&quot;, sans-serif" fill="#bbbec3ff" transform="rotate(23.03770361625879,516.7888764063483,50.80791079072047)"><tspan>TAGGED_WITH</tspan></text><polyline points="467.79633438106333,0.930448894518802 560.586146422528,-42.837787585552455" stroke="#A5ABB6" stroke-width="1.25" fill="none"/><polygon points="567.9346696976519,-46.30402916325066 555.8933535441046,-45.461514896119816 559.6262290893179,-37.54772059983264" fill="#A5ABB6"/><text x="514.1912404017957" y="-24.703669345516825" text-anchor="middle" dominant-baseline="alphabetic" font-size="7.5" font-family="&quot;Open Sans&quot;, sans-serif" fill="#bbbec3ff" transform="rotate(-25.252889235629155,514.1912404017957,-20.953669345516825)"><tspan>HAS_MEDIA</tspan></text><polyline points="18.24601464998399,263.3147012924881 52.031216576449296,361.2895628089972" stroke="#A5ABB6" stroke-width="1.25" fill="none"/><polygon points="54.67994461465011,368.9706997547656 55.148471840247375,356.90904119390115 46.8764782063429,359.76151754273275" fill="#A5ABB6"/><text x="35.13861561321664" y="308.55213205074267" text-anchor="middle" dominant-baseline="alphabetic" font-size="7.5" font-family="&quot;Open Sans&quot;, sans-serif" fill="#bbbec3ff" transform="rotate(70.97399312912609,35.13861561321664,312.30213205074267)"><tspan>LOCATED_IN</tspan></text><polyline points="-104.54555648644181,650.836598601762 -121.19178750855653,739.1750543290196" stroke="#A5ABB6" stroke-width="1.25" fill="none"/><polygon points="-122.6963583880062,747.1595324878421 -116.3137720078638,736.914254741484 -124.91244079428793,735.2939476405381" fill="#A5ABB6"/><text x="-112.86867199749918" y="691.2558264653908" text-anchor="middle" dominant-baseline="alphabetic" font-size="7.5" font-family="&quot;Open Sans&quot;, sans-serif" fill="#bbbec3ff" transform="rotate(-79.32849229967191,-112.86867199749918,695.0058264653908)"><tspan>LOCATED_IN</tspan></text><polyline points="-352.36187729421073,182.44653200739057 -252.2080360767727,86.41670239450177" stroke="#A5ABB6" stroke-width="1.25" fill="none"/><polygon points="-246.34331735675403,80.79347384365461 -257.4915894195437,85.42155714174064 -251.43580482632368,91.7374080709915" fill="#A5ABB6"/><text x="-302.2849566854917" y="130.68161720094616" text-anchor="middle" dominant-baseline="alphabetic" font-size="7.5" font-family="&quot;Open Sans&quot;, sans-serif" fill="#bbbec3ff" transform="rotate(-43.795752657004826,-302.2849566854917,134.43161720094616)"><tspan>LOCATED_IN</tspan></text><g class="node" data-id="4:b499d1bd-465a-4221-a922-893d39256f93:0"><circle cx="216.29625127276026" cy="255.05907667108826" r="31.25" fill="#3bc7ff"/><text x="216.29625127276026" y="255.05907667108826" text-anchor="middle" dominant-baseline="auto" font-size="10.330578512396693" font-family="&quot;Open Sans&quot;, sans-serif" fill="#1a1b1d"><tspan>Moda</tspan></text><text x="216.29625127276026" y="265.38965518348493" text-anchor="middle" dominant-baseline="auto" font-size="10.330578512396693" font-family="&quot;Open Sans&quot;, sans-serif" fill="#1a1b1d"><tspan>Feminin</tspan></text></g><g class="node" data-id="4:b499d1bd-465a-4221-a922-893d39256f93:1"><circle cx="-61.50254131349145" cy="-187.38911437466487" r="31.25" fill="#efbbe3"/><text x="-61.50254131349145" y="-187.38911437466487" text-anchor="middle" dominant-baseline="auto" font-size="10.330578512396693" font-family="&quot;Open Sans&quot;, sans-serif" fill="#1a1b1d"><tspan>Fortalez</tspan></text><text x="-61.50254131349145" y="-177.05853586226817" text-anchor="middle" dominant-baseline="auto" font-size="10.330578512396693" font-family="&quot;Open Sans&quot;, sans-serif" fill="#1a1b1d"><tspan>a, Ceará</tspan></text></g><g class="node" data-id="4:b499d1bd-465a-4221-a922-893d39256f93:2"><circle cx="63.815400576737886" cy="-503.43809193234597" r="31.25" fill="#efbbe3"/><text x="63.815400576737886" y="-503.43809193234597" text-anchor="middle" dominant-baseline="auto" font-size="10.330578512396693" font-family="&quot;Open Sans&quot;, sans-serif" fill="#1a1b1d"><tspan>Teresin</tspan></text><text x="63.815400576737886" y="-493.10751341994927" text-anchor="middle" dominant-baseline="auto" font-size="10.330578512396693" font-family="&quot;Open Sans&quot;, sans-serif" fill="#1a1b1d"><tspan>a,</tspan></text></g><g class="node" data-id="4:b499d1bd-465a-4221-a922-893d39256f93:3"><circle cx="64.73698268769738" cy="401.20295821112074" r="31.25" fill="#efbbe3"/><text x="64.73698268769738" y="401.20295821112074" text-anchor="middle" dominant-baseline="auto" font-size="10.330578512396693" font-family="&quot;Open Sans&quot;, sans-serif" fill="#1a1b1d"><tspan>Milão,</tspan></text><text x="64.73698268769738" y="411.53353672351744" text-anchor="middle" dominant-baseline="auto" font-size="10.330578512396693" font-family="&quot;Open Sans&quot;, sans-serif" fill="#1a1b1d"><tspan>Itália</tspan></text></g><g class="node" data-id="4:b499d1bd-465a-4221-a922-893d39256f93:4"><circle cx="-129.92881935295998" cy="780.1406484239413" r="31.25" fill="#efbbe3"/><text x="-129.92881935295998" y="780.1406484239413" text-anchor="middle" dominant-baseline="auto" font-size="10.330578512396693" font-family="&quot;Open Sans&quot;, sans-serif" fill="#1a1b1d"><tspan>Santos,</tspan></text><text x="-129.92881935295998" y="790.471226936338" text-anchor="middle" dominant-baseline="auto" font-size="10.330578512396693" font-family="&quot;Open Sans&quot;, sans-serif" fill="#1a1b1d"><tspan> São Pa</tspan></text></g><g class="node" data-id="4:b499d1bd-465a-4221-a922-893d39256f93:5"><circle cx="-221.2900883904184" cy="58.15725909029177" r="31.25" fill="#efbbe3"/><text x="-221.2900883904184" y="58.15725909029177" text-anchor="middle" dominant-baseline="auto" font-size="10.330578512396693" font-family="&quot;Open Sans&quot;, sans-serif" fill="#1a1b1d"><tspan>Marang</tspan></text><text x="-221.2900883904184" y="68.48783760268846" text-anchor="middle" dominant-baseline="auto" font-size="10.330578512396693" font-family="&quot;Open Sans&quot;, sans-serif" fill="#1a1b1d"><tspan>uape, C</tspan></text></g><g class="node" data-id="4:b499d1bd-465a-4221-a922-893d39256f93:6"><circle cx="351.12734961223555" cy="90.68959975445951" r="31.25" fill="#efbbe3"/><text x="351.12734961223555" y="90.68959975445951" text-anchor="middle" dominant-baseline="auto" font-size="10.330578512396693" font-family="&quot;Open Sans&quot;, sans-serif" fill="#1a1b1d"><tspan>Aquiraz,</tspan></text><text x="351.12734961223555" y="101.0201782668562" text-anchor="middle" dominant-baseline="auto" font-size="10.330578512396693" font-family="&quot;Open Sans&quot;, sans-serif" fill="#1a1b1d"><tspan>Ceará</tspan></text></g><g class="node" data-id="4:b499d1bd-465a-4221-a922-893d39256f93:7"><circle cx="100.08294206800902" cy="-68.32266346822578" r="31.25" fill="#7cc2ff"/><text x="100.08294206800902" y="-68.32266346822578" text-anchor="middle" dominant-baseline="auto" font-size="10.330578512396693" font-family="&quot;Open Sans&quot;, sans-serif" fill="#1a1b1d"><tspan>Ciência</tspan></text><text x="100.08294206800902" y="-57.99208495582909" text-anchor="middle" dominant-baseline="auto" font-size="10.330578512396693" font-family="&quot;Open Sans&quot;, sans-serif" fill="#1a1b1d"><tspan> de Dad</tspan></text></g><g class="node" data-id="4:b499d1bd-465a-4221-a922-893d39256f93:8"><circle cx="-46.33553869408094" cy="-483.9569925953776" r="31.25" fill="#ffd3d7"/><text x="-46.33553869408094" y="-483.9569925953776" text-anchor="middle" dominant-baseline="auto" font-size="10.330578512396693" font-family="&quot;Open Sans&quot;, sans-serif" fill="#1a1b1d"><tspan>Copa20</tspan></text><text x="-46.33553869408094" y="-473.6264140829809" text-anchor="middle" dominant-baseline="auto" font-size="10.330578512396693" font-family="&quot;Open Sans&quot;, sans-serif" fill="#1a1b1d"><tspan>26</tspan></text></g><g class="node" data-id="4:b499d1bd-465a-4221-a922-893d39256f93:9"><circle cx="182.06240953102034" cy="73.59707635703175" r="31.25" fill="#9fc67b"/><text x="182.06240953102034" y="78.7623656132301" text-anchor="middle" dominant-baseline="auto" font-size="10.330578512396693" font-family="&quot;Open Sans&quot;, sans-serif" fill="#1a1b1d"><tspan>Adriane</tspan></text></g><g class="node" data-id="4:b499d1bd-465a-4221-a922-893d39256f93:10"><circle cx="-94.22195567419989" cy="-2.6450796111369725" r="31.25" fill="#9fc67b"/><text x="-94.22195567419989" y="2.520209645061374" text-anchor="middle" dominant-baseline="auto" font-size="10.330578512396693" font-family="&quot;Open Sans&quot;, sans-serif" fill="#1a1b1d"><tspan>Victor</tspan></text></g><g class="node" data-id="4:b499d1bd-465a-4221-a922-893d39256f93:15"><circle cx="210.43358481622738" cy="-49.648737701393266" r="31.25" fill="#9fc67b"/><text x="210.43358481622738" y="-44.48344844519492" text-anchor="middle" dominant-baseline="auto" font-size="10.330578512396693" font-family="&quot;Open Sans&quot;, sans-serif" fill="#1a1b1d"><tspan>Vitória</tspan></text></g><g class="node" data-id="4:b499d1bd-465a-4221-a922-893d39256f93:23"><circle cx="59.994444391604944" cy="-172.2616645178328" r="31.25" fill="#d79fce"/><text x="59.994444391604944" y="-172.2616645178328" text-anchor="middle" dominant-baseline="auto" font-size="10.330578512396693" font-family="&quot;Open Sans&quot;, sans-serif" fill="#1a1b1d"><tspan>2026-06-</tspan></text><text x="59.994444391604944" y="-161.9310860054361" text-anchor="middle" dominant-baseline="auto" font-size="10.330578512396693" font-family="&quot;Open Sans&quot;, sans-serif" fill="#1a1b1d"><tspan>10T20:3</tspan></text></g><g class="node" data-id="4:b499d1bd-465a-4221-a922-893d39256f93:35"><circle cx="315.7705780615492" cy="203.92460838587442" r="31.25" fill="#b5e6fe"/><text x="315.7705780615492" y="203.92460838587442" text-anchor="middle" dominant-baseline="auto" font-size="10.330578512396693" font-family="&quot;Open Sans&quot;, sans-serif" fill="#1a1b1d"><tspan>Live</tspan></text><text x="315.7705780615492" y="214.25518689827112" text-anchor="middle" dominant-baseline="auto" font-size="10.330578512396693" font-family="&quot;Open Sans&quot;, sans-serif" fill="#1a1b1d"><tspan>Unboxin</tspan></text></g><g class="node" data-id="4:b499d1bd-465a-4221-a922-893d39256f93:27"><circle cx="5.483241932378086" cy="229.37101067760747" r="31.25" fill="#d79fce"/><text x="5.483241932378086" y="229.37101067760747" text-anchor="middle" dominant-baseline="auto" font-size="10.330578512396693" font-family="&quot;Open Sans&quot;, sans-serif" fill="#1a1b1d"><tspan>2026-06-</tspan></text><text x="5.483241932378086" y="239.70158919000417" text-anchor="middle" dominant-baseline="auto" font-size="10.330578512396693" font-family="&quot;Open Sans&quot;, sans-serif" fill="#1a1b1d"><tspan>19T18:3</tspan></text></g><g class="node" data-id="4:b499d1bd-465a-4221-a922-893d39256f93:26"><circle cx="435.43722950161225" cy="17.29965264426448" r="31.25" fill="#d79fce"/><text x="435.43722950161225" y="17.29965264426448" text-anchor="middle" dominant-baseline="auto" font-size="10.330578512396693" font-family="&quot;Open Sans&quot;, sans-serif" fill="#1a1b1d"><tspan>2026-06-</tspan></text><text x="435.43722950161225" y="27.630231156661175" text-anchor="middle" dominant-baseline="auto" font-size="10.330578512396693" font-family="&quot;Open Sans&quot;, sans-serif" fill="#1a1b1d"><tspan>14T19:4</tspan></text></g><g class="node" data-id="4:b499d1bd-465a-4221-a922-893d39256f93:12"><circle cx="-11.451186465531734" cy="-87.98752238468865" r="31.25" fill="#9fc67b"/><text x="-11.451186465531734" y="-87.98752238468865" text-anchor="middle" dominant-baseline="auto" font-size="10.330578512396693" font-family="&quot;Open Sans&quot;, sans-serif" fill="#1a1b1d"><tspan>Francis</tspan></text><text x="-11.451186465531734" y="-77.65694387229195" text-anchor="middle" dominant-baseline="auto" font-size="10.330578512396693" font-family="&quot;Open Sans&quot;, sans-serif" fill="#1a1b1d"><tspan>co</tspan></text></g><g class="node" data-id="4:b499d1bd-465a-4221-a922-893d39256f93:11"><circle cx="210.2394664287554" cy="-188.82618083161952" r="31.25" fill="#9fc67b"/><text x="210.2394664287554" y="-183.66089157542118" text-anchor="middle" dominant-baseline="auto" font-size="10.330578512396693" font-family="&quot;Open Sans&quot;, sans-serif" fill="#1a1b1d"><tspan>Maria</tspan></text></g><g class="node" data-id="4:b499d1bd-465a-4221-a922-893d39256f93:29"><circle cx="332.1189875514308" cy="-25.507529568300086" r="31.25" fill="#8cacc5"/><text x="332.1189875514308" y="-25.507529568300086" text-anchor="middle" dominant-baseline="auto" font-size="10.330578512396693" font-family="&quot;Open Sans&quot;, sans-serif" fill="#1a1b1d"><tspan>iphone</tspan></text><text x="332.1189875514308" y="-15.176951055903393" text-anchor="middle" dominant-baseline="auto" font-size="10.330578512396693" font-family="&quot;Open Sans&quot;, sans-serif" fill="#1a1b1d"><tspan>12</tspan></text></g><g class="node" data-id="4:b499d1bd-465a-4221-a922-893d39256f93:24"><circle cx="38.977385708036124" cy="-320.01766680070403" r="31.25" fill="#d79fce"/><text x="38.977385708036124" y="-320.01766680070403" text-anchor="middle" dominant-baseline="auto" font-size="10.330578512396693" font-family="&quot;Open Sans&quot;, sans-serif" fill="#1a1b1d"><tspan>2026-06-</tspan></text><text x="38.977385708036124" y="-309.68708828830734" text-anchor="middle" dominant-baseline="auto" font-size="10.330578512396693" font-family="&quot;Open Sans&quot;, sans-serif" fill="#1a1b1d"><tspan>10T21:0</tspan></text></g><g class="node" data-id="4:b499d1bd-465a-4221-a922-893d39256f93:19"><circle cx="-167.948892405008" cy="-157.79566217802417" r="31.25" fill="#61c6b1"/><text x="-167.948892405008" y="-157.79566217802417" text-anchor="middle" dominant-baseline="auto" font-size="10.330578512396693" font-family="&quot;Open Sans&quot;, sans-serif" fill="#1a1b1d"><tspan>Lindaaa</tspan></text><text x="-167.948892405008" y="-147.46508366562747" text-anchor="middle" dominant-baseline="auto" font-size="10.330578512396693" font-family="&quot;Open Sans&quot;, sans-serif" fill="#1a1b1d"><tspan>a</tspan></text></g><g class="node" data-id="4:b499d1bd-465a-4221-a922-893d39256f93:13"><circle cx="-371.77678658047466" cy="48.3425073704038" r="31.25" fill="#9fc67b"/><text x="-371.77678658047466" y="48.3425073704038" text-anchor="middle" dominant-baseline="auto" font-size="10.330578512396693" font-family="&quot;Open Sans&quot;, sans-serif" fill="#1a1b1d"><tspan>Carlos</tspan></text><text x="-371.77678658047466" y="58.67308588280049" text-anchor="middle" dominant-baseline="auto" font-size="10.330578512396693" font-family="&quot;Open Sans&quot;, sans-serif" fill="#1a1b1d"><tspan>Lima</tspan></text></g><g class="node" data-id="4:b499d1bd-465a-4221-a922-893d39256f93:34"><circle cx="-325.04609887381554" cy="-53.15102626433919" r="31.25" fill="#3bc7ff"/><text x="-325.04609887381554" y="-53.15102626433919" text-anchor="middle" dominant-baseline="auto" font-size="10.330578512396693" font-family="&quot;Open Sans&quot;, sans-serif" fill="#1a1b1d"><tspan>Promoç</tspan></text><text x="-325.04609887381554" y="-42.820447751942496" text-anchor="middle" dominant-baseline="auto" font-size="10.330578512396693" font-family="&quot;Open Sans&quot;, sans-serif" fill="#1a1b1d"><tspan>ão de El</tspan></text></g><g class="node" data-id="4:b499d1bd-465a-4221-a922-893d39256f93:30"><circle cx="-176.14321808899388" cy="160.49729564985915" r="31.25" fill="#8cacc5"/><text x="-176.14321808899388" y="160.49729564985915" text-anchor="middle" dominant-baseline="auto" font-size="10.330578512396693" font-family="&quot;Open Sans&quot;, sans-serif" fill="#1a1b1d"><tspan>Sansun</tspan></text><text x="-176.14321808899388" y="170.82787416225585" text-anchor="middle" dominant-baseline="auto" font-size="10.330578512396693" font-family="&quot;Open Sans&quot;, sans-serif" fill="#1a1b1d"><tspan>g</tspan></text></g><g class="node" data-id="4:b499d1bd-465a-4221-a922-893d39256f93:25"><circle cx="-160.4112473360503" cy="-269.17731982904075" r="31.25" fill="#d79fce"/><text x="-160.4112473360503" y="-269.17731982904075" text-anchor="middle" dominant-baseline="auto" font-size="10.330578512396693" font-family="&quot;Open Sans&quot;, sans-serif" fill="#1a1b1d"><tspan>2026-06-</tspan></text><text x="-160.4112473360503" y="-258.84674131664406" text-anchor="middle" dominant-baseline="auto" font-size="10.330578512396693" font-family="&quot;Open Sans&quot;, sans-serif" fill="#1a1b1d"><tspan>10T21:0</tspan></text></g><g class="node" data-id="4:b499d1bd-465a-4221-a922-893d39256f93:14"><circle cx="-535.6574191883308" cy="-41.43976495160389" r="31.25" fill="#9fc67b"/><text x="-535.6574191883308" y="-41.43976495160389" text-anchor="middle" dominant-baseline="auto" font-size="10.330578512396693" font-family="&quot;Open Sans&quot;, sans-serif" fill="#1a1b1d"><tspan>Ana</tspan></text><text x="-535.6574191883308" y="-31.1091864392072" text-anchor="middle" dominant-baseline="auto" font-size="10.330578512396693" font-family="&quot;Open Sans&quot;, sans-serif" fill="#1a1b1d"><tspan>Costa</tspan></text></g><g class="node" data-id="4:b499d1bd-465a-4221-a922-893d39256f93:31"><circle cx="-377.83545576188203" cy="208.2565939997879" r="31.25" fill="#8cacc5"/><text x="-377.83545576188203" y="208.2565939997879" text-anchor="middle" dominant-baseline="auto" font-size="10.330578512396693" font-family="&quot;Open Sans&quot;, sans-serif" fill="#1a1b1d"><tspan>Dell Ins</tspan></text><text x="-377.83545576188203" y="218.5871725121846" text-anchor="middle" dominant-baseline="auto" font-size="10.330578512396693" font-family="&quot;Open Sans&quot;, sans-serif" fill="#1a1b1d"><tspan>piron 15</tspan></text></g><g class="node" data-id="4:b499d1bd-465a-4221-a922-893d39256f93:16"><circle cx="-706.2516859802637" cy="-73.78303141759893" r="31.25" fill="#9fc67b"/><text x="-706.2516859802637" y="-73.78303141759893" text-anchor="middle" dominant-baseline="auto" font-size="10.330578512396693" font-family="&quot;Open Sans&quot;, sans-serif" fill="#1a1b1d"><tspan>João</tspan></text><text x="-706.2516859802637" y="-63.45245290520224" text-anchor="middle" dominant-baseline="auto" font-size="10.330578512396693" font-family="&quot;Open Sans&quot;, sans-serif" fill="#1a1b1d"><tspan>Melo</tspan></text></g><g class="node" data-id="4:b499d1bd-465a-4221-a922-893d39256f93:17"><circle cx="-66.93157748769288" cy="431.31213098211776" r="31.25" fill="#9fc67b"/><text x="-66.93157748769288" y="436.4774202383161" text-anchor="middle" dominant-baseline="auto" font-size="10.330578512396693" font-family="&quot;Open Sans&quot;, sans-serif" fill="#1a1b1d"><tspan>Adriana</tspan></text></g><g class="node" data-id="4:b499d1bd-465a-4221-a922-893d39256f93:28"><circle cx="-98.81556064382903" cy="615.0283642464683" r="31.25" fill="#d79fce"/><text x="-98.81556064382903" y="615.0283642464683" text-anchor="middle" dominant-baseline="auto" font-size="10.330578512396693" font-family="&quot;Open Sans&quot;, sans-serif" fill="#1a1b1d"><tspan>2026-06-</tspan></text><text x="-98.81556064382903" y="625.3589427588649" text-anchor="middle" dominant-baseline="auto" font-size="10.330578512396693" font-family="&quot;Open Sans&quot;, sans-serif" fill="#1a1b1d"><tspan>20T16:4</tspan></text></g><g class="node" data-id="4:b499d1bd-465a-4221-a922-893d39256f93:18"><circle cx="-282.226095964135" cy="846.432160891459" r="31.25" fill="#9fc67b"/><text x="-282.226095964135" y="851.5974501476574" text-anchor="middle" dominant-baseline="auto" font-size="10.330578512396693" font-family="&quot;Open Sans&quot;, sans-serif" fill="#1a1b1d"><tspan>Alice</tspan></text></g><g class="node" data-id="4:b499d1bd-465a-4221-a922-893d39256f93:20"><circle cx="602.534242114098" cy="88.35793341324917" r="31.25" fill="#db8afe"/><text x="602.534242114098" y="88.35793341324917" text-anchor="middle" dominant-baseline="auto" font-size="10.330578512396693" font-family="&quot;Open Sans&quot;, sans-serif" fill="#1a1b1d"><tspan>Machine</tspan></text><text x="602.534242114098" y="98.68851192564587" text-anchor="middle" dominant-baseline="auto" font-size="10.330578512396693" font-family="&quot;Open Sans&quot;, sans-serif" fill="#1a1b1d"><tspan>Learnin</tspan></text></g><g class="node" data-id="4:b499d1bd-465a-4221-a922-893d39256f93:21"><circle cx="-292.1572825634012" cy="-405.182062163431" r="31.25" fill="#db8afe"/><text x="-292.1572825634012" y="-405.182062163431" text-anchor="middle" dominant-baseline="auto" font-size="10.330578512396693" font-family="&quot;Open Sans&quot;, sans-serif" fill="#1a1b1d"><tspan>Follow</tspan></text><text x="-292.1572825634012" y="-394.8514836510343" text-anchor="middle" dominant-baseline="auto" font-size="10.330578512396693" font-family="&quot;Open Sans&quot;, sans-serif" fill="#1a1b1d"><tspan>Back</tspan></text></g><g class="node" data-id="4:b499d1bd-465a-4221-a922-893d39256f93:22"><circle cx="28.465175478242223" cy="16.175559986121606" r="31.25" fill="#db8afe"/><text x="28.465175478242223" y="21.34084924231995" text-anchor="middle" dominant-baseline="auto" font-size="10.330578512396693" font-family="&quot;Open Sans&quot;, sans-serif" fill="#1a1b1d"><tspan>4u</tspan></text></g><g class="node" data-id="4:b499d1bd-465a-4221-a922-893d39256f93:32"><circle cx="164.7428855078451" cy="-455.260356605456" r="31.25" fill="#e372de"/><text x="164.7428855078451" y="-450.0950673492577" text-anchor="middle" dominant-baseline="auto" font-size="10.330578512396693" font-family="&quot;Open Sans&quot;, sans-serif" fill="#1a1b1d"><tspan>md_02</tspan></text></g><g class="node" data-id="4:b499d1bd-465a-4221-a922-893d39256f93:39"><circle cx="598.8859191884982" cy="-59.79782977521256" r="31.25" fill="#e372de"/><text x="598.8859191884982" y="-54.63254051901421" text-anchor="middle" dominant-baseline="auto" font-size="10.330578512396693" font-family="&quot;Open Sans&quot;, sans-serif" fill="#1a1b1d"><tspan>md_01</tspan></text></g></g></svg>